<?xml version="1.0" standalone="no"?>
<!DOCTYPE svg PUBLIC "-//W3C//DTD SVG 20010904//EN"
 "http://www.w3.org/TR/2001/REC-SVG-20010904/DTD/svg10.dtd">
<svg version="1.0" xmlns="http://www.w3.org/2000/svg"
 width="512.000000pt" height="512.000000pt" viewBox="0 0 512.000000 512.000000"
 preserveAspectRatio="xMidYMid meet">

<g transform="translate(0.000000,512.000000) scale(0.100000,-0.100000)"
fill="#ffffff" stroke="none">
<path d="M730 3388 c-25 -14 -58 -44 -75 -67 -26 -37 -30 -51 -30 -109 0 -58
5 -77 38 -141 21 -41 58 -104 83 -139 45 -64 45 -65 26 -86 -172 -192 -308
-358 -324 -394 -41 -91 -5 -200 84 -259 35 -24 52 -28 107 -28 44 0 78 6 103
18 22 12 91 82 183 187 l148 169 101 -96 c55 -53 142 -127 191 -166 50 -38 89
-74 87 -78 -1 -5 -63 -122 -139 -260 -150 -276 -161 -309 -129 -392 19 -51 68
-105 113 -123 72 -31 189 -8 239 47 11 11 80 132 155 267 85 154 142 246 150
245 8 -1 71 -22 141 -47 70 -24 182 -54 248 -66 l120 -23 0 -230 c0 -153 4
-243 12 -271 16 -51 82 -119 133 -136 78 -26 185 5 232 66 48 63 52 92 53 341
l0 231 53 7 c85 12 268 62 367 101 51 20 96 32 100 27 4 -4 67 -117 139 -250
93 -169 144 -252 170 -276 94 -85 252 -61 316 47 32 54 41 122 25 172 -7 21
-73 148 -146 283 -74 134 -133 245 -132 246 60 38 228 177 325 269 47 44 66
56 75 48 7 -6 69 -76 138 -155 138 -159 168 -185 235 -199 134 -29 272 100
251 235 -8 48 -30 93 -61 121 -12 11 -84 92 -159 178 l-136 157 65 95 c79 113
95 150 95 213 -1 175 -208 277 -339 167 -17 -14 -64 -73 -105 -132 -102 -147
-212 -277 -347 -407 -622 -601 -1332 -697 -1976 -265 -252 169 -528 461 -694
737 -65 108 -105 136 -198 141 -55 3 -74 -1 -111 -20z"/>
</g>
</svg>
